HIERARCHY
ROOT Hips
{
	OFFSET 0.0000 0.0000 0.0000
	CHANNELS 6 Xposition Yposition Zposition Zrotation Xrotation Yrotation
	JOINT Spine1
	{
		OFFSET -0.0137 5.0038 -0.0537
		CHANNELS 3 Zrotation Xrotation Yrotation
		JOINT Spine2
		{
			OFFSET -0.0000 7.1253 -0.0298
			CHANNELS 3 Zrotation Xrotation Yrotation
			JOINT Chest
			{
				OFFSET -0.0000 7.5501 -0.8160
				CHANNELS 3 Zrotation Xrotation Yrotation
				JOINT Neck1
				{
					OFFSET -0.1817 26.3113 -0.5533
					CHANNELS 3 Zrotation Xrotation Yrotation
					JOINT Neck2
					{
						OFFSET -0.0000 7.7094 2.3026
						CHANNELS 3 Zrotation Xrotation Yrotation
						JOINT Head
						{
							OFFSET -0.0000 6.1289 1.9537
							CHANNELS 3 Zrotation Xrotation Yrotation
							JOINT Jaw
							{
								OFFSET 0.0026 0.4756 3.0949
								CHANNELS 3 Zrotation Xrotation Yrotation
								End Site
								{
									OFFSET 0.0 1.0 0.0
								}
							}
							JOINT LeftEye
							{
								OFFSET 3.2064 5.3802 7.5869
								CHANNELS 3 Zrotation Xrotation Yrotation
								End Site
								{
									OFFSET 0.0 1.0 0.0
								}
							}
							JOINT RightEye
							{
								OFFSET -3.2224 5.3619 7.5582
								CHANNELS 3 Zrotation Xrotation Yrotation
								End Site
								{
									OFFSET 0.0 1.0 0.0
								}
							}
						}
					}
				}
				JOINT LeftShoulder
				{
					OFFSET 1.6217 23.2372 5.1134
					CHANNELS 3 Zrotation Xrotation Yrotation
					JOINT LeftArm
					{
						OFFSET 14.9198 0.0000 -5.5023
						CHANNELS 3 Zrotation Xrotation Yrotation
						JOINT LeftForeArm
						{
							OFFSET 28.7393 0.0000 -0.0026
							CHANNELS 3 Zrotation Xrotation Yrotation
							JOINT LeftHand
							{
								OFFSET 27.0940 -0.0000 0.0026
								CHANNELS 3 Zrotation Xrotation Yrotation
								JOINT LeftHandThumbEnd
								{
									OFFSET 12.2686 -3.2202 4.8331
									CHANNELS 3 Zrotation Xrotation Yrotation
									End Site
									{
										OFFSET 0.0 1.0 0.0
									}
								}
								JOINT LeftHandMiddleEnd
								{
									OFFSET 19.0120 -0.3129 -0.0340
									CHANNELS 3 Zrotation Xrotation Yrotation
									End Site
									{
										OFFSET 0.0 1.0 0.0
									}
								}
							}
						}
					}
				}
				JOINT RightShoulder
				{
					OFFSET -1.3801 23.1803 5.2142
					CHANNELS 3 Zrotation Xrotation Yrotation
					JOINT RightArm
					{
						OFFSET -15.0372 0.0000 -5.5456
						CHANNELS 3 Zrotation Xrotation Yrotation
						JOINT RightForeArm
						{
							OFFSET -28.7366 0.0000 -0.0026
							CHANNELS 3 Zrotation Xrotation Yrotation
							JOINT RightHand
							{
								OFFSET -27.1336 -0.0000 0.0026
								CHANNELS 3 Zrotation Xrotation Yrotation
								JOINT RightHandThumbEnd
								{
									OFFSET -12.2642 -3.2115 4.8040
									CHANNELS 3 Zrotation Xrotation Yrotation
									End Site
									{
										OFFSET 0.0 1.0 0.0
									}
								}
								JOINT RightHandMiddleEnd
								{
									OFFSET -19.0006 -0.3066 -0.0316
									CHANNELS 3 Zrotation Xrotation Yrotation
									End Site
									{
										OFFSET 0.0 1.0 0.0
									}
								}
							}
						}
					}
				}
			}
		}
	}
	JOINT LeftLeg
	{
		OFFSET 10.0432 -8.4345 2.5957
		CHANNELS 3 Zrotation Xrotation Yrotation
		JOINT LeftShin
		{
			OFFSET -0.0000 -43.2218 -0.8029
			CHANNELS 3 Zrotation Xrotation Yrotation
			JOINT LeftFoot
			{
				OFFSET 0.0000 -42.1551 -3.4815
				CHANNELS 3 Zrotation Xrotation Yrotation
				JOINT LeftToeBase
				{
					OFFSET 0.0000 -5.0595 13.2315
					CHANNELS 3 Zrotation Xrotation Yrotation
					End Site
					{
						OFFSET 0.0 1.0 0.0
					}
				}
			}
		}
	}
	JOINT RightLeg
	{
		OFFSET -10.0473 -8.2953 2.6203
		CHANNELS 3 Zrotation Xrotation Yrotation
		JOINT RightShin
		{
			OFFSET 0.0000 -43.3622 -0.8056
			CHANNELS 3 Zrotation Xrotation Yrotation
			JOINT RightFoot
			{
				OFFSET 0.0000 -42.1174 -3.4784
				CHANNELS 3 Zrotation Xrotation Yrotation
				JOINT RightToeBase
				{
					OFFSET -0.0000 -5.0796 13.2842
					CHANNELS 3 Zrotation Xrotation Yrotation
					End Site
					{
						OFFSET 0.0 1.0 0.0
					}
				}
			}
		}
	}
}
MOTION
Frames: 9
Frame Time: 0.033333
-2.0192 90.7523 1.6103 5.7953 1.7805 -2.7535 0.6300 4.5975 0.0433 0.1240 -3.0448 0.5210 3.7442 17.6761 0.5672 15.1361 24.5894 -2.9651 -2.7029 -3.9536 -10.6116 4.7131 -1.6595 -14.1589 -0.0287 -0.1300 0.0524 0.7915 -10.8582 -3.9112 -0.8160 -10.7863 3.9945 0.7566 18.8141 -3.1887 -49.0190 19.8354 -28.8910 1.0026 1.0087 -74.1726 -0.5320 3.4007 5.9068 -15.6831 10.5679 15.4106 -60.6808 1.5083 2.1335 0.7255 13.7727 14.8732 80.5980 -45.8191 -36.7078 1.4394 -0.3403 80.8337 -44.0185 -37.9801 12.5023 15.7204 7.1764 -15.9334 49.1361 -2.8972 -4.9345 17.1999 -14.4296 10.9044 -0.4306 26.9206 -0.9632 -25.7815 -12.1943 0.7209 1.6224 -1.1022 -1.9100 -26.2897 -38.7391 -19.8108 0.5894 29.5651 0.9990 19.0436 7.2440 -0.6960 -1.3764 0.4216 0.7783
-2.1074 90.7237 1.6052 5.8265 1.9674 -2.8262 0.7367 4.6498 -0.0065 0.1657 -3.0082 0.4591 3.8438 17.5466 0.4449 15.2593 24.2838 -3.0806 -2.6637 -3.9484 -10.5247 4.6658 -1.7654 -14.1191 -0.0234 -0.1330 0.0481 0.8001 -10.8462 -3.9116 -0.8133 -10.7755 3.9845 1.0600 18.8014 -3.2621 -49.7259 20.1527 -29.4491 1.1332 1.1422 -74.8977 -0.3227 2.8109 5.9953 -15.6489 10.5751 15.4129 -60.6922 1.5115 2.1329 0.2754 13.5457 14.7635 80.2113 -46.0819 -36.5831 1.4369 -0.3592 80.5981 -43.5997 -37.9440 11.8754 15.7246 7.1974 -15.9640 49.1365 -2.8880 -4.9134 17.2302 -14.5440 10.8782 -0.4329 26.8565 -0.9503 -25.9360 -12.1164 0.7389 1.6218 -1.1567 -1.9065 -26.2353 -39.0432 -19.7243 0.5983 29.8573 1.0085 19.0287 7.0820 -0.7131 -1.3773 0.4785 0.7738
-2.1769 90.6916 1.5887 5.8456 2.1518 -2.8832 0.8395 4.7459 -0.0351 0.2094 -2.9826 0.3656 3.9455 17.4825 0.3192 15.4204 24.0323 -3.2159 -2.5903 -3.9359 -10.3959 4.6466 -1.8819 -14.0776 -0.0196 -0.1324 0.0461 0.8105 -10.8454 -3.9137 -0.8153 -10.7755 3.9813 1.4114 18.8040 -3.3159 -50.4056 20.4878 -30.0179 1.1955 1.1750 -75.7245 -0.1562 2.1836 6.0802 -15.5885 10.5868 15.4195 -60.7221 1.5072 2.1231 -0.1303 13.3466 14.6787 79.8818 -46.4085 -36.5035 1.4518 -0.3969 80.2621 -43.1531 -38.0006 11.3428 15.6954 7.1924 -16.0199 49.0712 -2.9069 -4.9265 17.2697 -14.7493 10.8429 -0.4421 26.9499 -0.9576 -26.0931 -12.0772 0.7247 1.6238 -1.2263 -1.9017 -26.1743 -39.3754 -19.6595 0.6017 30.1701 1.0094 19.0198 6.9357 -0.6994 -1.3806 0.5187 0.7655
-2.2429 90.6463 1.5440 5.8637 2.3269 -2.9223 0.9228 4.8523 -0.0666 0.2420 -2.9408 0.2777 4.0561 17.4492 0.2116 15.6284 23.8325 -3.3480 -2.5299 -3.9273 -10.2689 4.6591 -2.0618 -14.0441 -0.0110 -0.1283 0.0409 0.8203 -10.8344 -3.9194 -0.8077 -10.7670 3.9741 1.7611 18.8208 -3.3609 -51.0773 20.8350 -30.6421 1.2265 1.1912 -76.5660 -0.0175 1.6515 6.1448 -15.5325 10.5878 15.4345 -60.7108 1.4981 2.1410 -0.4246 13.1805 14.6212 79.5373 -46.7574 -36.3849 1.4379 -0.3836 79.8408 -42.7224 -38.1853 10.9137 15.6893 7.1803 -16.0864 49.0475 -2.9434 -4.9581 17.2954 -15.0167 10.7674 -0.4548 27.1737 -0.9600 -26.2399 -12.0992 0.6745 1.6248 -1.2738 -1.8969 -26.1226 -39.7088 -19.6265 0.6032 30.4661 1.0160 19.0035 6.8094 -0.6552 -1.3844 0.5667 0.7539
-2.2525 90.5939 1.5001 5.8817 2.4799 -2.9426 0.9896 4.9627 -0.1109 0.2607 -2.8887 0.2084 4.1726 17.4559 0.1528 15.8828 23.6832 -3.4396 -2.4675 -3.9293 -10.2181 4.7047 -2.2627 -14.0393 0.0066 -0.1232 0.0276 0.8407 -10.8258 -3.9359 -0.7926 -10.7635 3.9585 2.0886 18.8317 -3.3716 -51.6437 21.1813 -31.2369 1.1862 1.1753 -77.3951 0.1884 1.1946 6.2038 -15.4879 10.6079 15.4524 -60.6853 1.5020 2.1704 -0.5852 13.0791 14.5828 79.2201 -47.1966 -36.2847 1.3956 -0.2866 79.3449 -42.4159 -38.6240 10.6842 15.7040 7.1497 -16.1181 49.0264 -3.0014 -4.9823 17.3199 -15.3331 10.7028 -0.4698 27.5250 -0.9607 -26.3397 -12.1881 0.5928 1.6245 -1.3242 -1.8994 -26.1169 -40.0287 -19.5798 0.6087 30.7464 1.0329 19.0139 6.7157 -0.6094 -1.3888 0.6193 0.7446
-2.2471 90.5187 1.4655 5.9003 2.6082 -2.9825 1.0213 5.0728 -0.1243 0.2687 -2.8396 0.1428 4.2931 17.5272 0.1271 16.1681 23.6082 -3.4634 -2.4317 -3.9328 -10.2262 4.8100 -2.4395 -14.0686 0.0269 -0.1174 0.0113 0.8628 -10.8287 -3.9557 -0.7722 -10.7688 3.9374 2.3506 18.8310 -3.3209 -52.0465 21.5269 -31.7719 1.0953 1.1769 -78.0966 0.4903 0.8687 6.1745 -15.4839 10.6321 15.4842 -60.6862 1.5302 2.1743 -0.6139 13.0869 14.5718 78.9718 -47.7569 -36.2371 1.3420 -0.2055 78.8174 -42.2543 -39.1379 10.6908 15.6899 7.1053 -16.1123 48.9779 -3.0531 -5.0031 17.3142 -15.7188 10.7102 -0.4838 28.0417 -0.9709 -26.4158 -12.3854 0.4749 1.6243 -1.3326 -1.9058 -26.1640 -40.3404 -19.4722 0.6043 31.0369 1.0196 19.0273 6.6302 -0.5309 -1.3920 0.6980 0.7457
-2.1816 90.4245 1.4225 5.9146 2.6901 -3.0514 1.0239 5.1807 -0.1269 0.2779 -2.7668 0.0933 4.4009 17.6329 0.1325 16.4472 23.6020 -3.4974 -2.4095 -3.9437 -10.2558 4.8980 -2.5692 -14.0722 0.0411 -0.1134 -0.0006 0.8793 -10.8338 -3.9743 -0.7598 -10.7772 3.9268 2.5135 18.8048 -3.2329 -52.2952 21.8980 -32.3006 1.0282 1.1732 -78.4551 0.8742 0.6676 6.0828 -15.4798 10.6501 15.4995 -60.6923 1.5310 2.1591 -0.5549 13.1055 14.5859 78.8143 -48.3354 -36.1966 1.2948 -0.1093 78.2360 -42.1827 -39.5796 10.6859 15.7098 7.0673 -16.0977 48.9625 -3.1085 -5.0298 17.2844 -16.1116 10.7972 -0.4897 28.6579 -0.9685 -26.5032 -12.6543 0.3106 1.6256 -1.2814 -1.9118 -26.2461 -40.5852 -19.3269 0.5998 31.2757 1.0105 19.0189 6.5999 -0.4741 -1.3955 0.7903 0.7573
-2.0757 90.3146 1.3674 5.9314 2.7294 -3.1132 1.0066 5.2789 -0.1026 0.2806 -2.6991 0.0452 4.4946 17.7964 0.1636 16.7430 23.6957 -3.5687 -2.4123 -3.9538 -10.2700 4.9832 -2.6135 -14.0950 0.0461 -0.1132 -0.0049 0.8857 -10.8269 -3.9768 -0.7555 -10.7746 3.9185 2.5815 18.7784 -3.1379 -52.3425 22.3913 -32.9243 1.0779 1.1738 -78.3686 1.2783 0.6236 5.9423 -15.4979 10.6821 15.5056 -60.7164 1.5376 2.1893 -0.4521 13.1659 14.5782 78.8832 -48.9607 -36.2719 1.2937 -0.0749 77.5902 -42.2843 -39.8612 10.7811 15.7234 7.0453 -16.0957 48.9558 -3.1447 -5.0703 17.2246 -16.5457 10.9925 -0.4901 29.3815 -0.9680 -26.5946 -12.9777 0.1437 1.6252 -1.1417 -1.9252 -26.4076 -40.7450 -19.1068 0.5871 31.4118 0.9891 18.9818 6.6297 -0.3936 -1.3990 0.8837 0.7741
-1.8917 90.1964 1.2850 5.9374 2.7440 -3.1821 0.9727 5.3736 -0.0843 0.2800 -2.6183 0.0332 4.5638 17.9893 0.1903 17.0085 23.9196 -3.7243 -2.3828 -3.9552 -10.2469 5.0805 -2.5523 -14.0832 0.0419 -0.1184 -0.0014 0.8809 -10.8392 -3.9713 -0.7603 -10.7895 3.9229 2.6233 18.7743 -3.0743 -52.2431 22.9169 -33.6259 1.2178 1.1795 -77.7339 1.6394 0.8704 5.8277 -15.5188 10.6937 15.4919 -60.7282 1.5075 2.2169 -0.3579 13.2286 14.5576 79.1639 -49.5548 -36.4689 1.3427 -0.1040 76.9781 -42.4487 -39.8746 10.6961 15.7411 7.0605 -16.1143 48.9959 -3.1806 -5.1132 17.1438 -17.0149 11.2960 -0.4915 30.1465 -0.9721 -26.6720 -13.2903 -0.1008 1.6228 -0.9599 -1.9256 -26.5969 -40.8346 -18.8618 0.5913 31.4134 0.9926 18.9153 6.7802 -0.3836 -1.3978 0.9601 0.7914
